<?xml version="1.0" standalone="no"?>
<!DOCTYPE svg PUBLIC "-//W3C//DTD SVG 20010904//EN"
 "http://www.w3.org/TR/2001/REC-SVG-20010904/DTD/svg10.dtd">
<svg version="1.0" xmlns="http://www.w3.org/2000/svg"
 width="512.000000pt" height="512.000000pt" viewBox="0 0 512.000000 512.000000"
 preserveAspectRatio="xMidYMid meet">
<metadata>
Created by potrace 1.14, written by Peter Selinger 2001-2017
</metadata>
<g transform="translate(0.000000,512.000000) scale(0.100000,-0.100000)"
fill="#000000" stroke="none">
<path d="M0 2560 l0 -2560 2560 0 2560 0 0 2560 0 2560 -2560 0 -2560 0 0
-2560z m1838 1428 l3 -47 47 -3 47 -3 3 -177 2 -178 65 0 65 0 0 -115 0 -115
508 2 507 3 3 113 3 112 64 0 65 0 0 180 0 180 44 0 45 0 3 48 3 47 113 3 112
3 0 -51 0 -50 -45 0 -45 0 0 -115 0 -115 30 0 30 0 0 -115 0 -115 -50 0 -50 0
0 -230 0 -230 65 0 65 0 0 -180 0 -180 50 0 50 0 0 65 0 64 68 3 67 3 1 45 0
45 47 3 47 3 0 -280 0 -281 -45 0 -44 0 -3 -97 -3 -98 -67 -3 -68 -3 0 -64 0
-65 -50 0 -50 0 0 -230 0 -230 -65 0 -65 0 0 -179 0 -180 -47 -3 -48 -3 -3
-47 -3 -48 -44 0 -44 0 -3 -62 -3 -63 -62 -3 -62 -3 -3 -47 -3 -47 -47 -3 -47
-3 -3 -62 -3 -62 -407 -3 -408 -2 0 65 0 65 -50 0 -50 0 0 50 0 50 -65 0 -65
0 0 65 0 65 -50 0 -50 0 0 50 0 50 -65 0 -65 0 0 180 0 180 -50 0 -50 0 0 230
0 230 -65 0 -65 0 0 50 0 50 -50 0 -50 0 0 115 0 115 -50 0 -50 0 0 280 0 280
50 0 50 0 0 -50 0 -50 65 0 65 0 0 -65 0 -65 50 0 50 0 0 230 0 230 50 0 50 0
0 180 0 180 -35 0 -35 0 0 115 0 115 35 0 35 0 0 115 0 115 -50 0 -50 0 0 50
0 51 113 -3 112 -3 3 -47z"/>
</g>
</svg>
