<svg width="256" height="256" viewBox="0 0 256 256" fill="none" xmlns="http://www.w3.org/2000/svg">
<path fill-rule="evenodd" clip-rule="evenodd" d="M126.909 2.57427e-05C56.8189 2.57427e-05 0 57.3082 0 128C0 198.692 56.8189 256 126.909 256C156.467 256 183.665 245.808 205.237 228.718C188.808 237.945 169.888 243.2 149.752 243.2C86.672 243.2 35.5348 191.623 35.5348 128C35.5348 64.3771 86.672 12.7998 149.752 12.7998C169.888 12.7998 188.808 18.0551 205.237 27.2817C183.665 10.1916 156.467 2.57427e-05 126.909 2.57427e-05Z" fill="#EAAA00"/>
<path fill-rule="evenodd" clip-rule="evenodd" d="M154.473 230.4C210.545 230.4 256 184.554 256 128C256 71.4459 210.545 25.5997 154.473 25.5997C130.826 25.5997 109.068 33.7533 91.8105 47.4254C104.953 40.0444 120.089 35.8403 136.199 35.8403C186.662 35.8403 227.573 77.101 227.573 128C227.573 178.899 186.662 220.16 136.199 220.16C120.089 220.16 104.953 215.956 91.8105 208.575C109.068 222.247 130.826 230.4 154.473 230.4Z" fill="#EAAA00"/>
<path fill-rule="evenodd" clip-rule="evenodd" d="M128.391 108.934V93.6023H70.3148V108.934H91.1665V162.398H107.537V108.934H128.391Z" fill="#EAAA00"/>
<path fill-rule="evenodd" clip-rule="evenodd" d="M185.685 93.6022V108.934H153.238V122.104H178.476V137.434H153.238V162.398H136.868V93.6022H185.685Z" fill="#EAAA00"/>
</svg>
