<svg width="48" height="48" viewBox="0 0 48 48" fill="none" xmlns="http://www.w3.org/2000/svg">
  <path fill-rule="evenodd" clip-rule="evenodd" d="M14.9547 3.808V3.18933V2.57067H13.5253H12.096V3.18933V3.808H12.7147H13.3333V5.23733V6.66667H12.928H12.5227V8.11733V9.568H12.928H13.3333V11.8293V14.0907H12.7147H12.096V16.9493V19.808H11.4773H10.8587V18.9973V18.1867H10.048H9.23733V17.568V16.9493H8.61867H8V20.4267V23.904H8.61867H9.23733V25.3547V26.8053H9.856H10.4747V27.4027V28H11.2853H12.096V30.88V33.76H12.7147H13.3333V36.0213V38.2827H14.144H14.9547V38.9013V39.52H15.5733H16.192V40.3307V41.1413H17.024H17.856V41.76V42.3787H18.4747H19.0933V43.1893V44H24.2133H29.3333V43.1893V42.3787H29.952H30.5707V41.76V41.1413H31.3813H32.192V40.3307V39.52H32.8107H33.4293V38.9013V38.2827H34.048H34.6667V36.0213V33.76H35.4773H36.288V30.88V28H36.9067H37.5253V27.1893V26.3787H38.3573H39.1893V25.1413V23.904H39.808H40.4267V20.4267V16.9493H39.808H39.1893V17.568V18.1867H38.3573H37.5253V18.9973V19.808H36.9067H36.288V17.5467V15.2853H35.4773H34.6667V12.4267V9.568H35.2853H35.904V8.11733V6.66667H35.4987H35.0933V5.23733V3.808H35.6907H36.288V3.18933V2.57067H34.8587H33.4293V3.18933V3.808H32.8107H32.192V6.06933V8.33067H31.3813H30.5707V9.76V11.1893H24.2133H17.856V9.76V8.33067H17.024H16.192V6.06933V3.808H15.5733H14.9547Z" fill="white" />
</svg>
