<svg width="75" height="17" viewBox="0 0 75 17" fill="none" xmlns="http://www.w3.org/2000/svg">
<path d="M9.072 15.1764V11.5444H7.264V9.73644H5.44V7.91244H3.632V6.10444H7.264V7.91244H9.072V6.10444H7.264V4.28044H1.808V6.10444H0V9.73644H1.808V11.5444H3.632V13.3684H5.44V15.1764H1.808V13.3684H0V15.1764H1.808V17.0004H7.264V15.1764H9.072ZM16.3508 2.47244V0.648438H12.7188V2.47244H16.3508ZM16.3508 17.0004V4.28044H12.7188V17.0004H16.3508ZM30.8804 17.0004V6.10444H29.0564V4.28044H19.9844V17.0004H23.6164V6.10444H27.2484V17.0004H30.8804ZM45.4116 15.1764V2.47244H43.5876V0.648438H34.5156V17.0004H43.5876V15.1764H45.4116ZM41.7796 15.1764H38.1476V2.47244H41.7796V15.1764ZM59.9429 17.0004V2.47244H58.1189V0.648438H50.8549V2.47244H49.0469V17.0004H52.6789V9.73644H56.3109V17.0004H59.9429ZM56.3109 7.91244H52.6789V2.47244H56.3109V7.91244ZM74.4741 15.1764V2.47244H72.6661V0.648438H65.4021V2.47244H63.5781V15.1764H65.4021V17.0004H72.6661V15.1764H74.4741ZM70.8421 15.1764H67.2101V2.47244H70.8421V15.1764Z" fill="white"/>
</svg>
